<?xml version="1.0" standalone="no"?>
<!DOCTYPE svg PUBLIC "-//W3C//DTD SVG 20010904//EN"
 "http://www.w3.org/TR/2001/REC-SVG-20010904/DTD/svg10.dtd">
<svg version="1.0" xmlns="http://www.w3.org/2000/svg"
 width="890.000000pt" height="890.000000pt" viewBox="0 0 890.000000 890.000000"
 preserveAspectRatio="xMidYMid meet">
<metadata>
Created by potrace 1.11, written by Peter Selinger 2001-2013
</metadata>
<g transform="translate(0.000000,890.000000) scale(0.100000,-0.100000)"
fill="#000000" stroke="none">
<path d="M2690 8680 c0 -5 23 -30 50 -56 51 -48 60 -64 36 -64 -22 0 -40 -26
-22 -33 12 -5 10 -16 -11 -67 -31 -79 -21 -96 37 -62 21 12 41 22 44 22 8 0
-10 -53 -33 -97 -24 -48 -25 -53 -10 -53 6 0 28 19 48 42 l37 42 -4 -37 c-3
-29 -1 -37 12 -37 13 0 15 -8 10 -42 -9 -66 -14 -77 -25 -50 -4 12 -12 22 -17
22 -23 0 -95 -118 -116 -191 -24 -78 -5 -91 52 -36 l34 32 -8 -35 c-16 -65 -1
-160 24 -160 5 0 13 12 18 28 l10 27 27 -42 c32 -51 33 -53 7 -46 -24 6 -28
-18 -5 -37 8 -7 15 -17 15 -23 0 -7 -4 -7 -12 1 -14 14 -48 16 -48 2 0 -5 20
-34 45 -64 52 -64 58 -90 20 -80 -21 5 -24 3 -20 -16 4 -20 1 -21 -58 -18 -46
2 -61 0 -59 -10 3 -16 -44 -34 -110 -41 -5 -1 -8 -8 -8 -16 0 -8 3 -14 8 -14
21 4 75 -2 70 -7 -4 -3 -28 -11 -54 -18 -54 -14 -67 -32 -32 -45 12 -6 21 -10
18 -11 -3 -1 -16 -4 -30 -6 -26 -5 -40 -20 -40 -44 0 -8 -18 -35 -40 -60 -39
-44 -50 -70 -30 -70 5 0 39 16 76 35 36 19 76 35 89 35 29 0 115 36 115 48 0
5 -20 6 -45 2 -25 -4 -45 -4 -45 -1 1 11 27 41 36 41 5 0 26 5 47 11 27 7 37
15 33 24 -3 8 -1 17 5 20 5 4 7 10 4 15 -3 4 17 13 44 20 39 9 53 9 71 -2 19
-11 23 -10 40 10 11 13 27 25 37 26 29 5 26 23 -12 60 -20 20 -33 36 -31 36 3
0 50 -25 103 -55 54 -30 101 -55 105 -55 13 0 9 22 -7 40 -13 15 -9 16 53 13
37 -2 86 -8 109 -13 59 -14 73 -12 73 8 0 14 9 17 52 16 69 -1 184 18 181 31
-1 5 -30 15 -64 22 -53 11 -70 20 -111 60 -53 52 -112 135 -121 171 -4 17 -1
22 13 22 25 0 36 19 16 26 -9 3 -13 10 -10 15 3 5 -2 9 -10 9 -9 0 -16 5 -16
11 0 5 5 7 12 3 7 -4 8 -3 4 4 -4 6 -12 9 -19 6 -8 -3 -28 16 -47 42 -30 42
-32 50 -22 76 5 15 6 26 2 23 -14 -9 -124 100 -116 114 6 9 11 9 22 0 31 -25
33 6 3 41 -57 66 -92 105 -123 139 -21 23 -25 32 -13 28 36 -13 30 24 -13 86
l-43 62 45 -40 c24 -22 13 -9 -26 28 -47 44 -77 66 -89 63 -11 -3 -32 13 -63
50 -50 58 -77 63 -45 8 11 -19 17 -34 13 -34 -4 0 -34 18 -67 40 -62 41 -75
47 -75 30z"/>
<path d="M6664 8558 l-29 -33 33 29 c30 28 37 36 29 36 -2 0 -16 -15 -33 -32z"/>
<path d="M6968 8533 c6 -2 18 -2 25 0 6 3 1 5 -13 5 -14 0 -19 -2 -12 -5z"/>
<path d="M6950 8513 c0 -3 24 -28 53 -54 28 -26 49 -50 45 -54 -4 -4 -28 0
-54 9 -67 22 -72 20 -38 -15 l29 -32 -37 6 c-21 3 -38 4 -38 1 0 -2 27 -24 60
-48 95 -70 109 -90 46 -66 -14 5 -26 8 -26 5 0 -2 18 -38 40 -80 37 -71 51
-125 32 -125 -5 0 -21 14 -37 30 -38 40 -47 38 -29 -6 12 -27 12 -39 3 -50 -7
-8 -9 -27 -5 -49 6 -31 9 -34 26 -25 26 14 26 -3 0 -70 -20 -50 -16 -67 8 -30
19 30 32 24 32 -15 0 -40 29 -82 42 -62 12 18 58 -41 58 -74 0 -45 -23 -54
-59 -23 l-31 26 7 -34 c3 -18 12 -50 20 -72 7 -21 13 -49 13 -63 0 -40 16 -18
29 42 7 30 16 55 21 55 4 0 11 -20 15 -45 6 -41 9 -45 27 -39 19 6 20 3 14
-26 -3 -18 -6 -41 -6 -51 0 -11 -6 -19 -14 -19 -9 0 -18 -22 -26 -65 -7 -36
-16 -65 -21 -65 -5 0 -9 -13 -9 -30 0 -32 14 -40 24 -15 3 8 12 12 19 9 16 -6
27 33 27 92 0 42 16 44 25 4 7 -33 25 -41 25 -11 0 11 5 23 10 26 6 4 10 -15
10 -49 0 -45 -3 -54 -15 -50 -20 8 -31 -24 -16 -48 10 -17 8 -26 -14 -60 l-26
-39 38 6 38 6 -52 -50 c-57 -53 -61 -61 -38 -61 22 0 18 -23 -5 -38 -24 -14
-26 -32 -5 -32 30 0 27 -30 -6 -72 -18 -24 -37 -49 -43 -57 -9 -11 -5 -12 22
-7 17 4 32 5 32 2 0 -3 -14 -21 -31 -41 l-31 -35 32 6 c30 7 31 5 28 -21 -2
-19 -13 -34 -33 -45 -34 -19 -102 -103 -88 -107 6 -2 31 6 57 17 77 32 50 1
-52 -61 -50 -31 -99 -62 -108 -70 -16 -13 -15 -14 12 -19 16 -3 32 -2 35 3 4
5 15 5 26 -2 15 -8 25 -7 39 4 50 38 62 -8 13 -50 -17 -14 -29 -28 -26 -32 7
-6 -199 -163 -214 -163 -5 0 -9 -7 -9 -15 0 -8 6 -15 14 -15 7 0 17 -10 20
-22 l6 -23 23 28 c29 34 33 34 41 -3 8 -41 23 -38 36 9 7 28 17 41 35 45 17 4
23 12 20 25 -2 11 3 22 11 25 10 4 14 16 12 35 -1 16 4 36 11 45 8 9 11 20 7
23 -9 10 97 41 108 32 5 -4 -1 -23 -12 -43 -21 -35 -21 -36 -2 -36 21 0 24 -9
21 -73 -2 -50 15 -40 22 14 6 49 12 56 31 40 12 -10 15 -2 20 51 10 99 10 141
3 174 -6 25 -3 37 21 67 42 52 76 222 102 502 9 96 16 128 35 161 24 42 25 74
1 74 -7 0 -20 6 -30 13 -16 12 -17 22 -6 146 6 74 9 136 6 139 -3 3 -12 0 -20
-7 -18 -15 -19 -6 -46 259 -14 142 -17 155 -35 140 -16 -13 -18 1 -35 185 -14
149 -21 165 -50 130 -17 -20 -23 -14 -76 66 -25 38 -49 67 -53 65 -4 -3 -23
-1 -42 3 -70 18 -89 21 -89 14z"/>
<path d="M6601 7855 c-58 -85 -67 -116 -26 -89 33 21 37 17 20 -23 -7 -17 -43
-54 -79 -83 -36 -29 -66 -56 -66 -62 0 -9 7 -9 68 8 48 14 18 -17 -49 -50 -70
-33 -73 -34 -118 -20 -55 17 -61 17 -61 4 0 -5 18 -19 40 -30 22 -11 40 -25
40 -30 0 -6 -3 -9 -7 -8 -22 5 -83 -16 -83 -28 0 -11 19 -14 82 -14 80 0 82
-1 59 -17 -24 -16 -24 -16 -3 -24 12 -5 31 -6 43 -4 28 6 18 -4 -31 -30 -53
-27 -230 -163 -230 -177 0 -6 11 -8 26 -5 23 4 21 1 -18 -37 -67 -63 -102
-115 -84 -122 8 -3 29 2 46 11 43 22 46 15 10 -20 -48 -46 -35 -72 20 -40 39
23 46 17 17 -13 -48 -50 -29 -69 31 -32 48 30 51 25 9 -18 -21 -22 -37 -43
-35 -49 2 -5 -25 -40 -59 -78 -35 -37 -63 -71 -63 -76 0 -13 24 -11 40 4 8 6
2 -4 -13 -23 -50 -65 -59 -79 -52 -90 4 -6 17 -4 38 6 l32 16 -26 -28 c-14
-16 -40 -44 -57 -63 -17 -18 -34 -41 -37 -50 -4 -14 -45 -42 -154 -109 -22
-13 -23 -15 -6 -24 29 -17 184 -4 238 20 41 18 49 19 53 7 9 -22 24 -18 56 12
15 14 31 24 35 20 3 -4 7 -37 9 -74 1 -38 2 -74 3 -80 2 -29 45 -10 97 42 30
31 59 53 64 50 6 -4 10 -21 10 -39 0 -42 9 -50 32 -29 10 9 18 12 19 7 0 -5 2
-17 4 -27 14 -73 35 -53 35 32 0 55 4 71 20 86 12 11 20 14 21 7 1 -7 2 -17 3
-24 0 -6 7 -13 14 -15 11 -4 15 10 15 59 0 10 4 15 8 12 5 -3 9 -9 9 -14 0 -5
5 -21 10 -36 13 -33 27 -23 35 26 4 22 21 50 48 78 38 39 38 48 2 43 -5 -1 -2
5 8 13 26 20 116 98 160 139 23 21 34 37 28 42 -6 3 -15 3 -21 0 -27 -17 -3
16 60 81 66 68 126 166 113 187 -3 4 -15 -1 -27 -12 -12 -12 -25 -21 -29 -21
-3 0 21 52 54 116 65 126 68 164 8 96 -20 -23 -38 -42 -40 -42 -2 0 -4 20 -3
45 0 25 -3 48 -8 51 -5 3 12 34 37 69 25 35 45 69 45 75 0 6 -24 -7 -53 -30
-51 -38 -85 -54 -59 -28 21 21 14 41 -12 34 l-23 -6 23 47 c24 47 32 99 14 88
-16 -10 -12 53 6 80 15 23 15 25 0 31 -12 5 -16 20 -16 59 0 37 -4 55 -15 58
-16 7 -55 -36 -55 -60 0 -8 -5 -24 -11 -35 -9 -17 -13 -18 -20 -7 -5 8 -9 25
-9 39 0 27 -35 100 -54 112 -6 4 -16 1 -22 -8 -10 -13 -16 -11 -42 11 -30 25
-32 29 -58 167 -10 50 -31 40 -83 -37z"/>
<path d="M6139 7738 c-37 -39 -109 -143 -109 -157 0 -20 15 -11 48 26 29 33
32 35 26 13 -4 -14 -12 -43 -18 -66 -8 -31 -44 -76 -149 -192 -76 -84 -146
-152 -155 -152 -9 -1 -34 -23 -54 -49 -29 -37 -43 -48 -58 -44 -15 4 -20 0
-20 -15 0 -28 -53 -88 -89 -100 -37 -13 -98 20 -120 65 -10 20 -22 31 -31 28
-10 -3 -35 28 -78 98 -76 125 -98 154 -108 144 -4 -4 0 -30 10 -57 10 -28 18
-66 18 -85 0 -19 4 -32 9 -29 5 3 9 -4 9 -15 0 -12 5 -21 10 -21 6 0 10 -11
10 -25 0 -30 32 -65 60 -65 11 0 29 -13 41 -29 12 -16 29 -31 39 -34 9 -2 20
-17 24 -33 9 -35 70 -146 89 -163 11 -9 17 -8 27 4 11 14 16 11 34 -22 23 -41
56 -57 56 -27 0 28 11 10 34 -58 20 -57 81 -165 127 -226 26 -34 33 -8 9 37
-11 22 -20 59 -20 81 0 38 2 40 20 30 28 -15 26 3 -8 86 -25 60 -29 85 -23
147 1 4 15 13 31 18 34 12 40 29 11 29 -37 0 -32 20 18 81 57 68 62 84 25 76
-24 -4 -25 -3 -20 32 3 20 5 39 6 43 1 21 74 87 119 108 55 25 71 55 24 44
l-27 -7 20 25 c10 14 48 63 83 109 35 47 58 85 52 87 -7 2 -19 -2 -28 -10 -15
-12 -16 -10 -10 22 4 19 27 75 51 125 34 70 41 91 29 93 -8 2 -12 10 -9 18 3
8 9 21 12 29 10 26 -14 16 -47 -17z"/>
<path d="M3470 7746 c0 -2 8 -10 18 -17 15 -13 16 -12 3 4 -13 16 -21 21 -21
13z"/>
<path d="M5789 7643 l-24 -28 28 24 c15 14 27 26 27 28 0 8 -8 1 -31 -24z"/>
<path d="M4318 7603 c6 -2 10 -9 7 -14 -4 -5 -1 -17 5 -26 9 -15 10 -14 4 6
-5 18 -3 22 7 15 12 -6 12 -5 0 9 -7 9 -19 17 -25 16 -7 0 -6 -2 2 -6z"/>
<path d="M5739 7583 l-24 -28 28 24 c15 14 27 26 27 28 0 8 -8 1 -31 -24z"/>
<path d="M4391 7524 c13 -17 26 -30 28 -27 3 2 -8 16 -24 31 l-28 27 24 -31z"/>
<path d="M4108 7533 c12 -2 32 -2 45 0 12 2 2 4 -23 4 -25 0 -35 -2 -22 -4z"/>
<path d="M5674 7508 l-19 -23 23 19 c21 18 27 26 19 26 -2 0 -12 -10 -23 -22z"/>
<path d="M4688 7483 c6 -2 18 -2 25 0 6 3 1 5 -13 5 -14 0 -19 -2 -12 -5z"/>
<path d="M4450 7455 c13 -14 26 -25 28 -25 3 0 -5 11 -18 25 -13 14 -26 25
-28 25 -3 0 5 -11 18 -25z"/>
<path d="M5639 7463 c-13 -16 -12 -17 4 -4 9 7 17 15 17 17 0 8 -8 3 -21 -13z"/>
<path d="M5010 7416 c0 -2 11 -6 25 -8 13 -3 22 -1 19 3 -5 9 -44 13 -44 5z"/>
<path d="M5178 7393 c6 -2 18 -2 25 0 6 3 1 5 -13 5 -14 0 -19 -2 -12 -5z"/>
<path d="M5453 7383 c9 -2 25 -2 35 0 9 3 1 5 -18 5 -19 0 -27 -2 -17 -5z"/>
<path d="M2145 7080 c-10 -11 -14 -20 -9 -20 5 0 15 9 22 20 7 11 11 20 9 20
-2 0 -12 -9 -22 -20z"/>
<path d="M2161 7034 c0 -11 3 -14 6 -6 3 7 2 16 -1 19 -3 4 -6 -2 -5 -13z"/>
<path d="M3515 6924 c-23 -25 -44 -78 -45 -114 -1 -8 -8 -2 -16 14 -17 30 -30
26 -38 -14 -20 -105 -28 -128 -44 -126 -15 1 -16 -8 -14 -62 4 -62 3 -63 -20
-60 -22 3 -23 -1 -26 -56 -3 -57 -4 -58 -19 -36 -24 34 -33 6 -17 -53 17 -66
3 -81 -27 -28 -12 23 -27 41 -32 41 -15 0 -1 -122 15 -134 14 -11 25 -136 12
-136 -3 0 -15 11 -26 25 -22 28 -42 24 -33 -6 9 -26 3 -24 -35 13 -40 38 -51
23 -21 -28 12 -20 24 -52 27 -72 4 -21 7 -41 8 -47 2 -15 16 -35 25 -35 4 0
12 12 18 28 11 27 11 27 13 -13 1 -22 3 -44 5 -50 1 -5 3 -20 3 -32 5 -65 52
32 52 105 0 29 3 52 7 52 4 0 22 -14 40 -32 32 -31 58 -34 34 -4 -7 8 -14 34
-16 57 -2 23 -8 45 -13 48 -17 11 -10 39 10 33 15 -4 18 2 19 34 1 34 3 68 8
112 0 7 5 11 10 8 13 -9 71 52 71 74 0 9 7 23 15 30 8 6 14 15 13 18 0 4 0 18
1 31 1 19 4 21 15 12 22 -18 28 0 29 88 0 75 1 78 17 58 17 -20 17 -20 33 13
10 18 17 39 17 47 0 7 5 13 10 13 6 0 10 25 10 56 0 34 -4 53 -10 49 -5 -3
-10 -3 -11 2 -3 29 -9 48 -18 51 -6 2 -11 12 -11 22 0 31 -18 33 -45 4z"/>
<path d="M2528 6429 c-39 -20 -78 -63 -78 -85 0 -8 -4 -14 -10 -14 -5 0 -10 5
-10 10 0 24 -28 7 -49 -30 -12 -22 -26 -40 -31 -40 -4 0 -13 -13 -19 -30 -5
-16 -16 -30 -24 -30 -7 0 -24 -12 -38 -26 -13 -14 -32 -30 -42 -35 -15 -9 -17
-7 -11 15 12 48 -43 28 -150 -56 -53 -42 -68 -43 -42 -2 32 47 6 39 -44 -15
-31 -33 -66 -87 -91 -140 -23 -47 -59 -123 -82 -168 -76 -155 -60 -303 44
-404 132 -128 300 -108 464 56 59 58 77 85 110 160 36 83 77 158 61 112 -10
-31 71 21 105 67 37 51 37 60 -1 41 -16 -9 -30 -11 -30 -6 0 5 23 46 50 91 53
86 59 103 35 94 -8 -4 -15 -1 -15 5 0 6 5 11 10 11 6 0 10 29 10 66 0 55 -2
65 -15 60 -13 -5 -15 2 -13 35 2 33 5 39 20 36 24 -7 23 14 -2 63 -25 50 -25
68 2 97 l21 23 -30 0 c-28 0 -62 24 -61 43 0 16 -7 15 -44 -4z m-325 -336 c-7
-2 -19 -2 -25 0 -7 3 -2 5 12 5 14 0 19 -2 13 -5z m-193 -47 c0 -2 -8 -10 -17
-17 -16 -13 -17 -12 -4 4 13 16 21 21 21 13z m366 -38 l29 -33 -32 29 c-31 28
-38 36 -30 36 2 0 16 -15 33 -32z m-316 -41 c0 -2 -11 -19 -25 -37 -63 -85
-88 -277 -51 -388 17 -50 57 -101 101 -130 17 -11 14 -12 -28 -8 -130 15 -219
125 -204 254 9 73 45 159 91 215 42 52 116 111 116 94z m-140 -11 c0 -2 -8
-10 -17 -17 -16 -13 -17 -12 -4 4 13 16 21 21 21 13z m530 -61 c14 -19 14 -19
-2 -6 -10 7 -18 18 -18 24 0 6 1 8 3 6 1 -2 9 -13 17 -24z m-280 -29 c0 -17
-59 -56 -84 -56 -13 0 -16 5 -10 23 11 36 25 47 60 47 23 0 34 -5 34 -14z
m208 -8 c35 -35 -9 -118 -62 -118 -59 0 -52 96 9 120 29 12 39 12 53 -2z m107
-8 c10 -11 16 -20 13 -20 -3 0 -13 9 -23 20 -10 11 -16 20 -13 20 3 0 13 -9
23 -20z"/>
<path d="M6810 6158 c0 -6 10 -22 22 -35 21 -22 21 -24 3 -17 -11 5 -31 14
-45 21 -62 32 -65 7 -10 -67 22 -29 40 -57 40 -61 0 -4 -20 -1 -45 6 -71 22
-68 -4 8 -60 41 -30 52 -55 13 -30 -34 23 -41 4 -17 -44 25 -48 37 -57 56 -41
12 10 15 9 15 -8 0 -25 18 -40 58 -48 41 -8 41 -19 1 -33 -49 -17 -73 -13 -99
14 -28 30 -56 35 -41 8 5 -10 52 -63 105 -118 73 -77 97 -97 105 -86 9 14 12
11 81 -104 l24 -40 -31 23 c-36 26 -43 27 -43 8 0 -23 130 -237 167 -274 7 -7
17 -10 23 -7 12 8 7 42 -25 158 -13 48 -21 87 -19 87 3 0 18 -7 34 -15 46 -24
45 0 -1 50 l-42 46 41 -7 c52 -8 54 4 12 60 -29 38 -31 56 -6 56 13 0 30 28
41 68 8 29 -11 29 -42 0 -22 -20 -23 -21 -24 -2 -2 34 2 49 27 81 23 31 24 33
6 42 -11 6 -37 8 -58 5 -37 -5 -38 -5 -14 8 19 10 26 23 28 53 l3 40 19 -25
c16 -21 20 -22 34 -11 14 12 16 10 15 -15 -3 -45 0 -64 10 -64 5 0 12 10 16
23 6 19 8 19 12 5 6 -24 23 -23 23 1 0 29 -30 155 -41 171 -9 13 -12 13 -22
-2 -10 -15 -13 -12 -22 24 -11 47 -30 60 -40 28 -5 -15 -12 -19 -25 -15 -19 6
-20 3 -36 -88 -7 -40 -12 -44 -53 -50 -13 -2 -34 -14 -47 -26 -21 -20 -42 -26
-88 -22 -18 1 -18 2 0 29 9 15 37 47 60 72 42 44 43 44 63 26 19 -18 21 -18
27 -1 9 23 -8 126 -21 126 -5 0 -12 -9 -15 -21 -5 -20 -7 -19 -43 11 -47 39
-147 99 -164 99 -7 0 -13 -5 -13 -12z"/>
<path d="M7471 6020 c14 -31 19 -36 19 -24 0 6 -7 19 -16 30 -14 18 -14 18 -3
-6z"/>
<path d="M7530 5906 c0 -2 8 -10 18 -17 15 -13 16 -12 3 4 -13 16 -21 21 -21
13z"/>
<path d="M4266 5704 c-27 -9 -86 -40 -130 -70 -117 -79 -267 -185 -306 -216
-33 -26 -35 -26 -53 -10 -11 9 -22 16 -26 15 -3 -1 -5 5 -3 13 2 12 -8 14 -55
12 -53 -3 -58 -1 -56 17 2 30 -19 37 -44 13 -28 -27 -91 -35 -99 -13 -6 14 -8
14 -25 -1 -13 -11 -19 -31 -19 -57 0 -34 -2 -38 -15 -27 -8 7 -15 18 -15 25 0
7 -6 18 -14 24 -11 9 -16 5 -25 -20 -24 -70 -11 -100 72 -163 45 -34 46 -45 7
-53 -54 -10 -28 -28 36 -25 38 2 72 -2 97 -12 34 -15 41 -14 38 7 -3 18 19 3
77 -51 36 -34 62 -67 62 -78 0 -27 19 -44 47 -44 13 0 63 -15 111 -34 216 -85
303 -102 457 -91 206 14 201 12 428 226 115 109 137 135 137 160 0 22 -21 53
-88 131 -156 181 -193 213 -321 275 -132 63 -193 73 -275 47z m66 -197 c58
-47 67 -67 47 -103 -17 -33 -39 -30 -72 11 -15 19 -34 35 -41 35 -15 0 -61
-64 -77 -108 -16 -40 -12 -132 7 -187 9 -27 34 -76 55 -110 l38 -60 -85 -3
c-104 -3 -119 5 -195 115 -62 89 -66 118 -30 214 25 65 113 168 180 211 67 42
108 38 173 -15z m-421 -454 c13 -16 12 -17 -3 -4 -17 13 -22 21 -14 21 2 0 10
-8 17 -17z m34 -2 c3 -5 2 -12 -3 -15 -5 -3 -9 1 -9 9 0 17 3 19 12 6z"/>
<path d="M7655 5710 c3 -5 8 -10 11 -10 2 0 4 5 4 10 0 6 -5 10 -11 10 -5 0
-7 -4 -4 -10z"/>
<path d="M7632 5585 c0 -16 2 -22 5 -12 2 9 2 23 0 30 -3 6 -5 -1 -5 -18z"/>
<path d="M7661 5414 c0 -11 3 -14 6 -6 3 7 2 16 -1 19 -3 4 -6 -2 -5 -13z"/>
<path d="M7666 5377 c3 -10 9 -15 12 -12 3 3 0 11 -7 18 -10 9 -11 8 -5 -6z"/>
<path d="M5805 5330 c-3 -6 1 -7 9 -4 18 7 21 14 7 14 -6 0 -13 -4 -16 -10z"/>
<path d="M6534 5298 l-19 -23 25 20 c14 11 27 21 29 22 2 2 0 3 -6 3 -5 0 -18
-10 -29 -22z"/>
<path d="M5490 5293 c0 -6 8 -17 18 -24 16 -13 16 -13 2 6 -8 11 -16 22 -17
24 -2 2 -3 0 -3 -6z"/>
<path d="M5650 5290 c-9 -6 -10 -10 -3 -10 6 0 15 5 18 10 8 12 4 12 -15 0z"/>
<path d="M6286 5292 c-3 -5 1 -9 9 -9 8 0 12 4 9 9 -3 4 -7 8 -9 8 -2 0 -6 -4
-9 -8z"/>
<path d="M6385 5290 c-3 -6 1 -7 9 -4 18 7 21 14 7 14 -6 0 -13 -4 -16 -10z"/>
<path d="M6709 5283 c-13 -17 -13 -17 6 -3 11 8 22 16 24 17 2 2 0 3 -6 3 -6
0 -17 -8 -24 -17z"/>
<path d="M6452 5277 c-8 -10 -6 -13 11 -14 12 0 16 1 9 4 -6 3 -10 9 -6 14 8
14 -2 11 -14 -4z"/>
<path d="M5270 5271 c0 -5 5 -13 10 -16 6 -3 10 -2 10 4 0 5 -4 13 -10 16 -5
3 -10 2 -10 -4z"/>
<path d="M5605 5270 c-3 -6 1 -7 9 -4 18 7 21 14 7 14 -6 0 -13 -4 -16 -10z"/>
<path d="M5696 5265 c-10 -8 -22 -12 -27 -10 -4 3 -10 1 -14 -5 -10 -17 18
-11 50 10 17 11 26 20 20 20 -5 -1 -19 -7 -29 -15z"/>
<path d="M5234 5256 c-3 -8 -4 -23 -2 -33 3 -11 6 -6 9 15 6 34 2 42 -7 18z"/>
<path d="M5337 5263 c-10 -9 -9 -23 1 -23 5 0 9 7 9 15 0 17 -1 18 -10 8z"/>
<path d="M5530 5258 c0 -5 11 -8 24 -8 14 0 27 3 29 8 3 4 -8 7 -24 7 -16 0
-29 -3 -29 -7z"/>
<path d="M6230 5256 c0 -2 7 -7 16 -10 8 -3 12 -2 9 4 -6 10 -25 14 -25 6z"/>
<path d="M5870 5240 c8 -5 20 -10 25 -10 6 0 3 5 -5 10 -8 5 -19 10 -25 10 -5
0 -3 -5 5 -10z"/>
<path d="M6577 5243 c-14 -13 -7 -23 16 -22 17 1 18 2 4 6 -9 2 -15 9 -12 14
7 10 1 12 -8 2z"/>
<path d="M6068 5233 c6 -2 18 -2 25 0 6 3 1 5 -13 5 -14 0 -19 -2 -12 -5z"/>
<path d="M5979 5217 c5 -5 19 -7 32 -5 20 3 19 5 -9 9 -20 3 -29 2 -23 -4z"/>
<path d="M6386 5193 c-6 -14 -5 -15 5 -6 7 7 10 15 7 18 -3 3 -9 -2 -12 -12z"/>
<path d="M6735 5199 c-4 -6 -5 -12 -2 -15 2 -3 7 2 10 11 7 17 1 20 -8 4z"/>
<path d="M6215 5160 c3 -5 8 -10 11 -10 2 0 4 5 4 10 0 6 -5 10 -11 10 -5 0
-7 -4 -4 -10z"/>
<path d="M6765 5128 l-40 -43 43 40 c39 36 47 45 39 45 -2 0 -21 -19 -42 -42z"/>
<path d="M6267 5139 c7 -7 15 -10 18 -7 3 3 -2 9 -12 12 -14 6 -15 5 -6 -5z"/>
<path d="M6456 5133 c-6 -14 -5 -15 5 -6 7 7 10 15 7 18 -3 3 -9 -2 -12 -12z"/>
<path d="M6309 5127 c5 -5 21 -7 37 -5 27 3 26 4 -8 9 -22 3 -34 1 -29 -4z"/>
<path d="M6555 5110 c-16 -17 -23 -30 -17 -30 7 0 12 5 12 11 0 5 4 8 9 5 4
-3 16 3 25 13 29 32 1 32 -29 1z m35 16 c0 -2 -8 -10 -17 -17 -16 -13 -17 -12
-4 4 13 16 21 21 21 13z"/>
<path d="M7754 5122 c11 -12 24 -22 30 -21 6 0 6 3 -2 6 -6 2 -9 10 -5 16 3 7
3 9 -2 5 -4 -4 -15 -2 -24 4 -10 8 -9 4 3 -10z"/>
<path d="M5221 5114 c0 -11 3 -14 6 -6 3 7 2 16 -1 19 -3 4 -6 -2 -5 -13z"/>
<path d="M7712 5110 c0 -14 2 -19 5 -12 2 6 2 18 0 25 -3 6 -5 1 -5 -13z"/>
<path d="M6788 5083 c7 -3 16 -2 19 1 4 3 -2 6 -13 5 -11 0 -14 -3 -6 -6z"/>
<path d="M5181 5064 c0 -11 3 -14 6 -6 3 7 2 16 -1 19 -3 4 -6 -2 -5 -13z"/>
<path d="M6728 5073 c7 -3 16 -2 19 1 4 3 -2 6 -13 5 -11 0 -14 -3 -6 -6z"/>
<path d="M6815 5039 c-4 -6 -5 -12 -2 -15 2 -3 7 2 10 11 7 17 1 20 -8 4z"/>
<path d="M6935 5010 c-3 -6 1 -7 9 -4 18 7 21 14 7 14 -6 0 -13 -4 -16 -10z"/>
<path d="M5111 4994 c0 -11 3 -14 6 -6 3 7 2 16 -1 19 -3 4 -6 -2 -5 -13z"/>
<path d="M6898 4993 c7 -3 16 -2 19 1 4 3 -2 6 -13 5 -11 0 -14 -3 -6 -6z"/>
<path d="M6895 4939 c-4 -6 -5 -12 -2 -15 2 -3 7 2 10 11 7 17 1 20 -8 4z"/>
<path d="M5036 4903 c-6 -14 -5 -15 5 -6 7 7 10 15 7 18 -3 3 -9 -2 -12 -12z"/>
<path d="M5009 4863 c-13 -16 -12 -17 4 -4 16 13 21 21 13 21 -2 0 -10 -8 -17
-17z"/>
<path d="M6844 4839 c-3 -6 -2 -15 3 -20 5 -5 9 -1 9 11 0 23 -2 24 -12 9z"/>
<path d="M3329 4823 c-13 -16 -12 -17 4 -4 16 13 21 21 13 21 -2 0 -10 -8 -17
-17z"/>
<path d="M4914 4803 c-15 -20 -23 -33 -16 -29 13 8 56 66 49 66 -3 0 -17 -17
-33 -37z"/>
<path d="M7730 4801 c0 -6 4 -13 10 -16 6 -3 7 1 4 9 -7 18 -14 21 -14 7z"/>
<path d="M1735 4753 c-82 -10 -221 -65 -210 -83 3 -5 1 -11 -4 -14 -11 -7 -9
-29 6 -47 6 -8 9 -22 8 -32 -2 -10 2 -16 8 -14 17 5 16 29 -2 50 -9 10 -11 17
-6 15 6 -2 10 2 10 7 0 6 -4 9 -8 7 -5 -1 -5 3 0 10 4 7 8 16 8 20 0 3 3 9 7
13 3 4 5 -1 3 -12 -1 -10 5 -26 13 -36 16 -18 25 -48 14 -44 -4 1 -8 -2 -9 -8
-2 -5 1 -10 6 -10 5 0 13 -4 18 -9 4 -5 3 -6 -4 -2 -6 3 -14 2 -17 -2 -3 -5
-46 -9 -96 -9 -50 0 -89 0 -88 1 2 1 26 21 53 46 27 25 37 31 22 14 -15 -17
-24 -34 -20 -39 5 -4 3 -5 -4 -1 -6 3 -15 1 -18 -5 -5 -7 1 -9 14 -7 12 1 21
7 20 11 0 5 12 22 27 38 15 16 24 29 20 29 -5 0 -3 7 4 15 21 26 -3 16 -46
-18 -95 -76 -140 -157 -151 -274 l-6 -63 40 -38 c21 -20 85 -62 141 -92 86
-46 100 -57 86 -67 -8 -6 -25 -10 -37 -8 -70 11 -164 14 -176 6 -59 -38 163
-336 322 -430 90 -53 184 -45 327 30 167 86 417 307 520 458 53 79 83 169 74
220 -12 62 -99 136 -244 208 -162 80 -226 106 -332 137 -82 24 -220 37 -293
29z m64 -11 c9 7 6 1 -5 -12 -12 -14 -20 -33 -19 -42 2 -10 0 -16 -3 -15 -4 1
-7 -2 -7 -8 0 -5 2 -9 6 -8 3 1 5 -9 5 -22 0 -13 -3 -23 -7 -22 -4 1 -9 -2
-10 -7 -2 -5 5 -10 17 -12 19 -3 20 1 19 46 -1 27 1 48 4 47 3 -1 7 3 8 8 0 6
-3 9 -8 8 -15 -5 -11 2 18 28 14 13 23 19 19 12 -3 -6 -2 -14 4 -18 5 -3 10
-1 10 6 0 7 3 9 7 6 3 -4 -7 -21 -23 -38 -22 -23 -29 -39 -29 -75 -1 -27 3
-43 9 -41 6 2 10 13 10 25 -1 12 2 20 6 19 5 -1 8 3 8 8 0 6 -4 9 -8 8 -17 -5
-3 28 23 55 15 16 25 31 22 34 -3 2 2 5 10 5 11 0 9 -7 -10 -27 -14 -14 -22
-30 -18 -34 5 -4 4 -6 -2 -4 -5 2 -10 -1 -10 -7 0 -5 2 -9 6 -8 3 1 5 -9 5
-22 0 -13 -3 -23 -7 -22 -4 1 -7 -2 -7 -8 0 -5 4 -9 8 -8 5 2 7 -6 5 -17 -2
-11 0 -22 6 -25 8 -6 13 8 10 28 0 4 2 6 6 5 5 -2 8 2 8 7 0 6 -2 9 -5 8 -4
-1 -6 9 -6 22 0 13 2 23 6 22 3 -1 5 3 5 8 0 6 -3 9 -7 8 -12 -4 -2 24 19 50
16 21 22 24 27 12 3 -8 1 -14 -3 -12 -5 1 -8 -2 -7 -8 0 -5 5 -9 11 -7 5 2 2
-5 -7 -15 -8 -10 -14 -26 -13 -35 2 -10 0 -16 -3 -15 -4 1 -7 -2 -7 -8 0 -5 3
-9 7 -8 3 1 5 -5 3 -15 -1 -9 3 -24 9 -32 9 -13 9 -13 -5 -3 -16 13 -29 8 -29
-9 0 -5 5 -6 12 -2 7 4 8 3 4 -4 -5 -8 0 -11 16 -8 14 2 21 9 19 17 -9 32 -7
105 4 119 13 17 13 29 0 50 -7 12 -6 13 7 3 8 -7 19 -9 24 -5 4 4 4 0 -2 -8
-9 -14 -11 -31 -4 -45 1 -3 3 -27 4 -55 0 -28 5 -49 11 -47 10 2 11 74 2 115
-4 15 -2 20 5 16 7 -5 9 -1 5 9 -9 24 0 21 13 -3 8 -16 8 -20 -2 -18 -7 2 -11
-4 -9 -12 9 -35 7 -129 -3 -127 -6 1 -10 -6 -8 -15 2 -12 -4 -18 -18 -18 -11
0 -20 4 -20 9 0 5 -10 8 -23 6 -12 -3 -50 8 -82 23 -47 22 -73 28 -120 27 -33
-1 -52 0 -42 2 9 3 15 9 11 14 -3 5 -9 7 -13 5 -4 -3 -7 6 -7 19 0 13 3 23 7
22 4 -1 6 3 5 8 0 6 -4 9 -8 8 -3 -1 -5 5 -3 15 1 9 -2 22 -7 29 -6 7 -5 14 2
18 6 4 9 3 8 -2 -2 -4 2 -9 7 -10 6 -2 10 1 10 6 0 5 2 12 6 15 3 3 5 -5 5
-19 0 -13 -3 -23 -7 -22 -4 1 -6 -2 -5 -8 0 -5 3 -9 7 -8 3 1 5 -9 5 -22 0
-13 -3 -23 -7 -22 -4 1 -7 -2 -7 -8 0 -5 4 -9 10 -7 5 1 7 -2 4 -7 -4 -5 -2
-12 3 -15 14 -9 18 13 16 82 -1 35 1 58 5 52 4 -6 6 -40 5 -75 -2 -53 0 -63
11 -54 8 6 11 15 8 20 -3 5 -1 8 4 7 6 -2 10 2 10 7 0 6 -3 9 -7 8 -4 -1 -7 9
-7 22 0 13 2 23 6 22 3 -1 5 3 5 8 0 6 -4 9 -10 7 -5 -2 -7 0 -3 4 4 4 2 14
-5 22 -8 11 -8 14 0 9 6 -4 15 -2 18 4 5 8 10 8 18 0 7 -7 15 -7 26 1z m-154
-102 c1 -52 -3 -71 -13 -75 -19 -7 -25 -1 -26 29 -1 14 -9 33 -18 43 -19 21
-18 47 2 66 10 10 11 9 4 -3 -5 -8 -10 -23 -11 -34 -3 -16 -1 -17 12 -6 8 7
13 15 11 19 -3 4 -1 13 4 20 5 9 7 3 7 -17 -1 -17 -4 -30 -7 -29 -3 1 -5 -2
-5 -8 0 -5 3 -9 6 -8 4 1 5 -11 4 -28 -3 -30 9 -49 17 -26 3 6 4 40 3 75 -1
34 1 60 4 57 3 -3 5 -37 6 -75z m397 65 c3 0 10 -4 15 -8 4 -5 4 -8 -2 -7 -21
5 -25 -1 -15 -20 6 -11 7 -19 3 -18 -4 2 -8 -1 -8 -7 0 -5 2 -9 6 -8 3 1 5 -9
5 -22 0 -13 -2 -23 -5 -22 -4 1 -6 -2 -6 -8 0 -5 2 -9 6 -8 3 1 5 -9 5 -22 0
-13 -3 -22 -7 -19 -4 2 -11 -1 -14 -7 -5 -7 1 -9 16 -7 22 3 24 8 25 68 0 36
-4 71 -10 78 -7 9 -5 12 5 10 8 -2 13 3 11 10 -1 8 2 11 8 7 6 -3 7 -12 3 -18
-12 -19 -10 -158 2 -154 5 2 9 13 9 25 -1 12 2 20 6 19 5 -1 8 3 8 8 0 6 -3 9
-7 8 -4 -1 -7 9 -7 22 0 13 2 23 6 22 3 -1 5 3 5 8 0 6 -3 9 -7 8 -8 -3 -1 37
8 46 3 3 4 -1 3 -9 -2 -8 1 -16 6 -16 6 -1 9 1 8 5 -1 4 5 8 13 8 12 0 12 -3
0 -16 -7 -9 -12 -24 -11 -33 2 -10 0 -16 -3 -15 -4 1 -7 -2 -7 -8 0 -5 2 -9 6
-8 3 1 5 -9 5 -22 0 -13 -2 -23 -5 -23 -16 1 -22 -3 -16 -12 11 -17 44 8 40
30 -2 11 -1 19 3 17 4 -1 7 3 7 8 0 6 -3 9 -6 8 -12 -4 -3 47 10 59 11 11 12
10 5 -2 -14 -24 -13 -38 2 -51 8 -6 11 -15 8 -20 -6 -10 9 -12 19 -2 4 3 -1
15 -10 25 -10 11 -13 18 -8 16 6 -2 10 2 10 7 0 6 -4 9 -8 7 -5 -1 -5 2 -2 8
5 8 13 6 24 -4 10 -9 20 -13 23 -10 3 3 9 1 12 -5 8 -12 -112 -114 -124 -106
-5 3 -11 1 -15 -5 -3 -5 -24 -10 -45 -10 -32 0 -39 3 -37 19 0 11 4 19 8 18 4
-1 7 3 7 8 0 6 -3 9 -7 8 -4 -1 -7 9 -7 22 0 13 3 23 7 22 4 -1 6 3 5 8 0 6
-4 9 -8 8 -3 -1 -5 5 -3 15 1 9 -3 24 -9 32 -10 13 -9 13 7 1 15 -12 17 -11
14 5 -1 11 -7 25 -11 33 -7 11 -6 12 5 5 8 -5 17 -9 21 -9z m-14 -639 c26 -13
74 -29 107 -36 70 -15 127 -40 122 -54 -2 -6 -28 -12 -57 -14 -43 -3 -65 3
-114 27 -61 30 -116 74 -116 91 0 14 5 13 58 -14z"/>
<path d="M1756 4731 c-4 -5 -2 -12 3 -15 5 -4 12 -2 15 3 4 5 2 12 -3 15 -5 4
-12 2 -15 -3z"/>
<path d="M1816 4721 c-4 -5 -2 -12 3 -15 5 -4 12 -2 15 3 4 5 2 12 -3 15 -5 4
-12 2 -15 -3z"/>
<path d="M1886 4691 c-4 -5 -2 -12 3 -15 5 -4 12 -2 15 3 4 5 2 12 -3 15 -5 4
-12 2 -15 -3z"/>
<path d="M1937 4673 c-4 -9 -1 -88 6 -117 4 -22 27 -35 23 -14 -1 7 -4 18 -7
23 -3 6 -5 32 -4 58 1 44 -8 69 -18 50z"/>
<path d="M1825 4580 c-3 -5 1 -10 10 -10 9 0 13 5 10 10 -3 6 -8 10 -10 10 -2
0 -7 -4 -10 -10z"/>
<path d="M2194 4619 c-8 -14 14 -19 25 -6 8 10 7 14 -5 14 -8 0 -17 -4 -20 -8z"/>
<path d="M7762 4725 c6 -14 15 -25 19 -25 5 0 3 11 -3 25 -6 14 -15 25 -19 25
-5 0 -3 -11 3 -25z"/>
<path d="M4799 4703 c-13 -16 -12 -17 4 -4 16 13 21 21 13 21 -2 0 -10 -8 -17
-17z"/>
<path d="M6870 4709 c0 -5 11 -9 25 -9 14 0 25 2 25 4 0 2 -11 6 -25 8 -14 3
-25 1 -25 -3z"/>
<path d="M4830 4690 c0 -5 5 -10 11 -10 5 0 7 5 4 10 -3 6 -8 10 -11 10 -2 0
-4 -4 -4 -10z"/>
<path d="M3880 4683 c-59 -23 -222 -104 -217 -109 3 -3 16 0 29 7 12 7 25 14
28 14 3 1 21 8 40 17 19 9 61 28 93 42 31 14 57 28 57 31 0 6 -10 5 -30 -2z"/>
<path d="M7801 4670 c14 -31 19 -36 19 -24 0 6 -7 19 -16 30 -14 18 -14 18 -3
-6z"/>
<path d="M4676 4665 c-11 -8 -17 -17 -14 -20 2 -3 13 4 23 15 21 23 18 25 -9
5z"/>
<path d="M4611 4647 c-13 -21 -12 -21 5 -5 10 10 16 20 13 22 -3 3 -11 -5 -18
-17z"/>
<path d="M6945 4660 c-3 -5 -1 -10 4 -10 6 0 11 5 11 10 0 6 -2 10 -4 10 -3 0
-8 -4 -11 -10z"/>
<path d="M4725 4640 c-3 -5 -3 -10 1 -10 4 0 -1 -6 -12 -14 -10 -8 -16 -17
-13 -20 3 -3 16 5 28 18 13 14 18 26 12 30 -5 4 -12 2 -16 -4z"/>
<path d="M1556 4621 c-4 -5 -2 -12 3 -15 5 -4 12 -2 15 3 4 5 2 12 -3 15 -5 4
-12 2 -15 -3z"/>
<path d="M4569 4613 c-13 -16 -12 -17 4 -4 16 13 21 21 13 21 -2 0 -10 -8 -17
-17z"/>
<path d="M1489 4604 c-17 -21 -21 -46 -6 -41 7 2 12 9 12 15 0 5 3 14 7 18 4
3 5 -3 3 -15 -2 -14 0 -21 7 -19 16 6 18 35 3 48 -9 7 -16 6 -26 -6z"/>
<path d="M6985 4609 c-4 -6 -5 -12 -2 -15 2 -3 7 2 10 11 7 17 1 20 -8 4z"/>
<path d="M3750 4563 c0 -5 12 -20 28 -34 l27 -24 -25 30 c-14 17 -26 32 -27
34 -2 2 -3 0 -3 -6z"/>
<path d="M3846 4551 c-3 -5 2 -15 12 -22 15 -12 16 -12 5 2 -7 9 -10 19 -6 22
3 4 4 7 0 7 -3 0 -8 -4 -11 -9z"/>
<path d="M4538 4553 c7 -3 16 -2 19 1 4 3 -2 6 -13 5 -11 0 -14 -3 -6 -6z"/>
<path d="M4219 4537 c5 -5 19 -7 32 -5 20 3 19 5 -9 9 -20 3 -29 2 -23 -4z"/>
<path d="M4075 4529 c-4 -6 -14 -8 -24 -4 -12 5 -13 3 -4 -6 9 -9 17 -8 34 5
13 9 18 16 12 16 -7 0 -15 -5 -18 -11z"/>
<path d="M6920 4520 c6 -11 13 -20 16 -20 2 0 0 9 -6 20 -6 11 -13 20 -16 20
-2 0 0 -9 6 -20z"/>
<path d="M3824 4522 c3 -5 0 -13 -6 -15 -8 -3 -6 -6 5 -6 19 -1 23 14 5 25 -6
4 -8 3 -4 -4z"/>
<path d="M4556 4522 c-3 -5 1 -9 9 -9 8 0 12 4 9 9 -3 4 -7 8 -9 8 -2 0 -6 -4
-9 -8z"/>
<path d="M3888 4508 c5 -5 16 -8 23 -6 8 3 3 7 -10 11 -17 4 -21 3 -13 -5z"/>
<path d="M3975 4510 c-16 -7 -17 -9 -3 -9 9 -1 20 4 23 9 7 11 7 11 -20 0z"/>
<path d="M4425 4510 l-30 -8 27 -1 c15 0 30 4 33 9 3 6 5 9 3 9 -2 -1 -16 -5
-33 -9z"/>
<path d="M4148 4503 c7 -3 16 -2 19 1 4 3 -2 6 -13 5 -11 0 -14 -3 -6 -6z"/>
<path d="M3680 4470 c-8 -5 -10 -10 -5 -10 6 0 17 5 25 10 8 5 11 10 5 10 -5
0 -17 -5 -25 -10z"/>
<path d="M4316 4465 c-11 -8 -17 -17 -14 -20 2 -3 13 4 23 15 21 23 18 25 -9
5z"/>
<path d="M6876 4458 c3 -5 10 -6 15 -3 13 9 11 12 -6 12 -8 0 -12 -4 -9 -9z"/>
<path d="M6945 4441 c-3 -5 -2 -12 3 -15 5 -3 9 1 9 9 0 17 -3 19 -12 6z"/>
<path d="M818 4283 c7 -3 16 -2 19 1 4 3 -2 6 -13 5 -11 0 -14 -3 -6 -6z"/>
<path d="M943 4273 c9 -2 23 -2 30 0 6 3 -1 5 -18 5 -16 0 -22 -2 -12 -5z"/>
<path d="M1038 4263 c12 -2 32 -2 45 0 12 2 2 4 -23 4 -25 0 -35 -2 -22 -4z"/>
<path d="M6930 4245 c-7 -9 -8 -15 -2 -15 5 0 12 7 16 15 3 8 4 15 2 15 -2 0
-9 -7 -16 -15z"/>
<path d="M3064 4214 c-18 -14 -18 -15 4 -4 12 6 22 13 22 15 0 8 -5 6 -26 -11z"/>
<path d="M3618 4173 c7 -3 16 -2 19 1 4 3 -2 6 -13 5 -11 0 -14 -3 -6 -6z"/>
<path d="M6895 4160 c-10 -11 -14 -20 -9 -20 5 0 15 9 22 20 7 11 11 20 9 20
-2 0 -12 -9 -22 -20z"/>
<path d="M623 4113 c9 -2 23 -2 30 0 6 3 -1 5 -18 5 -16 0 -22 -2 -12 -5z"/>
<path d="M518 4103 c12 -2 30 -2 40 0 9 3 -1 5 -23 4 -22 0 -30 -2 -17 -4z"/>
<path d="M6875 4081 c-3 -5 -2 -12 3 -15 5 -3 9 1 9 9 0 17 -3 19 -12 6z"/>
<path d="M3703 4063 c9 -2 25 -2 35 0 9 3 1 5 -18 5 -19 0 -27 -2 -17 -5z"/>
<path d="M7000 3965 c-9 -10 -9 -15 -1 -15 6 0 11 5 11 11 0 5 5 7 12 3 7 -4
8 -3 4 4 -9 15 -11 15 -26 -3z"/>
<path d="M3416 3942 c-2 -4 9 -8 25 -8 33 -2 33 4 1 11 -12 2 -24 1 -26 -3z"/>
<path d="M1341 3931 c-19 -12 -6 -43 16 -39 10 2 18 12 18 22 0 22 -14 29 -34
17z"/>
<path d="M7039 3923 c-13 -16 -12 -17 4 -4 9 7 17 15 17 17 0 8 -8 3 -21 -13z"/>
<path d="M2386 3893 c-11 -11 -6 -23 9 -23 8 0 15 4 15 9 0 13 -16 22 -24 14z"/>
<path d="M2600 3874 c0 -17 10 -17 33 0 16 12 15 14 -8 14 -15 0 -25 -6 -25
-14z"/>
<path d="M3313 3873 c9 -2 23 -2 30 0 6 3 -1 5 -18 5 -16 0 -22 -2 -12 -5z"/>
<path d="M3443 3863 c9 -2 23 -2 30 0 6 3 -1 5 -18 5 -16 0 -22 -2 -12 -5z"/>
<path d="M3528 3853 c6 -2 18 -2 25 0 6 3 1 5 -13 5 -14 0 -19 -2 -12 -5z"/>
<path d="M2428 3843 c7 -3 16 -2 19 1 4 3 -2 6 -13 5 -11 0 -14 -3 -6 -6z"/>
<path d="M3628 3843 c7 -3 16 -2 19 1 4 3 -2 6 -13 5 -11 0 -14 -3 -6 -6z"/>
<path d="M2303 3827 c-9 -15 15 -31 29 -19 7 5 29 14 48 20 33 9 32 9 -18 8
-30 0 -56 -5 -59 -9z"/>
<path d="M1203 3823 c9 -2 23 -2 30 0 6 3 -1 5 -18 5 -16 0 -22 -2 -12 -5z"/>
<path d="M1426 3801 c-4 -5 -2 -12 3 -15 5 -4 12 -2 15 3 4 5 2 12 -3 15 -5 4
-12 2 -15 -3z"/>
<path d="M3278 3803 c7 -3 16 -2 19 1 4 3 -2 6 -13 5 -11 0 -14 -3 -6 -6z"/>
<path d="M3368 3793 c6 -2 18 -2 25 0 6 3 1 5 -13 5 -14 0 -19 -2 -12 -5z"/>
<path d="M1495 3751 c-7 -12 12 -24 25 -16 11 7 4 25 -10 25 -5 0 -11 -4 -15
-9z"/>
<path d="M2185 3743 c-15 -14 -15 -18 -1 -31 18 -19 46 -9 46 17 0 26 -26 34
-45 14z"/>
<path d="M2314 3745 c-3 -8 -3 -19 0 -24 9 -13 36 -2 36 14 0 19 -30 27 -36
10z"/>
<path d="M1180 3730 c0 -5 5 -10 11 -10 5 0 7 5 4 10 -3 6 -8 10 -11 10 -2 0
-4 -4 -4 -10z"/>
<path d="M2413 3733 c9 -2 25 -2 35 0 9 3 1 5 -18 5 -19 0 -27 -2 -17 -5z"/>
<path d="M2077 3673 c-15 -14 -7 -43 12 -43 26 0 36 17 21 35 -14 16 -23 19
-33 8z"/>
<path d="M1215 3660 c-3 -5 -1 -10 4 -10 6 0 11 5 11 10 0 6 -2 10 -4 10 -3 0
-8 -4 -11 -10z"/>
<path d="M2400 3650 c0 -16 6 -20 29 -18 25 2 27 4 17 20 -15 25 -46 23 -46
-2z"/>
<path d="M1525 3650 c-3 -6 1 -13 10 -16 19 -8 30 0 20 15 -8 14 -22 14 -30 1z"/>
<path d="M1610 3645 c0 -9 5 -15 11 -13 6 2 11 8 11 13 0 5 -5 11 -11 13 -6 2
-11 -4 -11 -13z"/>
<path d="M2153 3644 c-7 -18 17 -38 31 -24 11 11 1 40 -14 40 -6 0 -13 -7 -17
-16z"/>
<path d="M2254 3635 c-18 -13 -18 -15 -2 -31 18 -18 48 -13 48 9 0 26 -25 38
-46 22z"/>
<path d="M1927 3613 c-12 -11 -8 -23 8 -23 8 0 15 7 15 15 0 16 -12 20 -23 8z"/>
<path d="M1697 3603 c-12 -11 -8 -23 8 -23 8 0 15 7 15 15 0 16 -12 20 -23 8z"/>
<path d="M1256 3585 c-11 -8 -15 -15 -9 -15 6 0 16 7 23 15 16 19 11 19 -14 0z"/>
<path d="M1630 3575 c0 -8 5 -15 10 -15 6 0 10 7 10 15 0 8 -4 15 -10 15 -5 0
-10 -7 -10 -15z"/>
<path d="M1800 3574 c0 -17 22 -14 28 4 2 7 -3 12 -12 12 -9 0 -16 -7 -16 -16z"/>
<path d="M2310 3577 c0 -2 15 -16 33 -33 l32 -29 -29 33 c-28 30 -36 37 -36
29z"/>
<path d="M2540 3576 c0 -2 8 -10 18 -17 15 -13 16 -12 3 4 -13 16 -21 21 -21
13z"/>
<path d="M3130 3565 c14 -8 30 -14 35 -14 6 0 -1 6 -15 14 -14 8 -29 14 -35
14 -5 0 1 -6 15 -14z"/>
<path d="M1417 3564 c-14 -14 -7 -35 11 -32 9 2 17 10 17 17 0 16 -18 25 -28
15z"/>
<path d="M2012 3548 c-8 -8 -9 -15 -1 -25 18 -21 41 -16 37 9 -4 26 -19 33
-36 16z"/>
<path d="M2107 3554 c-12 -12 -8 -46 8 -58 12 -9 45 -193 45 -250 0 -20 -63
-4 -147 38 -134 66 -246 86 -427 76 -83 -5 -90 -7 -110 -33 -17 -23 -21 -41
-19 -92 3 -86 21 -123 87 -181 31 -26 59 -59 63 -72 4 -19 10 -22 27 -17 59
19 67 17 107 -15 32 -25 47 -31 69 -26 16 3 32 1 35 -5 4 -5 28 -9 53 -7 44 3
47 1 50 -22 1 -14 5 -35 8 -48 l5 -23 45 27 45 27 23 -22 c29 -27 32 -27 52
11 l16 31 28 -31 c32 -37 41 -39 65 -12 21 23 58 25 130 7 46 -12 50 -16 57
-52 11 -50 22 -62 13 -13 l-7 38 43 -19 c24 -10 68 -19 96 -20 29 -1 68 -8 87
-16 30 -13 36 -13 46 0 23 27 39 16 56 -40 10 -30 20 -53 22 -50 2 2 -3 24
-11 49 -15 45 -12 57 10 35 12 -12 60 8 82 35 7 9 29 18 50 22 20 4 60 18 90
32 69 32 124 38 215 22 71 -12 75 -12 106 11 23 17 34 20 37 12 7 -20 23 -15
45 12 17 22 27 25 78 25 49 0 60 3 65 19 9 29 48 50 132 71 84 22 103 33 103
61 0 14 -7 19 -27 19 -42 0 -182 -36 -237 -60 -34 -16 -83 -25 -160 -31 -229
-18 -294 -29 -339 -60 -62 -42 -101 -39 -227 21 -70 33 -111 59 -123 77 -16
24 -18 25 -12 5 6 -22 3 -21 -74 17 -52 27 -94 41 -119 41 -30 0 -45 7 -69 33
-26 27 -35 50 -56 152 -16 75 -22 124 -16 129 15 16 11 46 -7 53 -10 4 -22 -1
-30 -12 -12 -16 -12 -21 1 -35 11 -12 65 -214 65 -244 0 -14 -67 -4 -120 16
l-57 23 -16 124 c-11 87 -13 129 -6 137 17 20 7 59 -16 62 -12 2 -24 0 -28 -4z"/>
<path d="M1884 3529 c-3 -6 0 -15 7 -20 14 -8 32 9 23 23 -7 11 -22 10 -30 -3z"/>
<path d="M1740 3520 c0 -5 5 -10 10 -10 6 0 10 5 10 10 0 6 -4 10 -10 10 -5 0
-10 -4 -10 -10z"/>
<path d="M1574 3509 c-10 -17 13 -36 27 -22 12 12 4 33 -11 33 -5 0 -12 -5
-16 -11z"/>
<path d="M2466 3512 c-8 -13 11 -35 23 -28 16 10 14 36 -3 36 -8 0 -17 -4 -20
-8z"/>
<path d="M686 3465 c-11 -8 -15 -15 -9 -15 6 0 16 7 23 15 16 19 11 19 -14 0z"/>
<path d="M2503 3395 c26 -28 47 -56 47 -63 0 -7 6 -15 13 -18 8 -3 24 -38 37
-79 13 -41 25 -73 28 -70 2 2 -3 25 -12 51 -25 73 -20 84 18 42 18 -21 37 -38
42 -38 4 0 -12 20 -36 45 -25 26 -45 55 -45 68 0 16 -6 22 -22 22 -12 0 -43
20 -70 45 l-48 45 48 -50z"/>
<path d="M3100 3365 c30 -30 57 -55 59 -55 3 0 -19 25 -49 55 -30 30 -57 55
-59 55 -3 0 19 -25 49 -55z"/>
<path d="M2800 3356 c0 -2 8 -10 18 -17 15 -13 16 -12 3 4 -13 16 -21 21 -21
13z"/>
<path d="M2830 3358 c0 -2 21 -21 48 -43 26 -21 38 -28 27 -16 -19 23 -75 66
-75 59z"/>
<path d="M7696 3298 c-3 -18 -9 -58 -12 -88 -4 -30 -8 -62 -10 -70 -1 -8 -3
-27 -3 -42 -1 -20 -5 -26 -16 -21 -12 4 -25 -15 -52 -76 -35 -77 -53 -99 -53
-67 0 47 -41 19 -108 -73 -38 -52 -39 -61 -10 -61 l21 0 -23 -25 c-24 -25 -60
-38 -133 -49 -54 -8 -150 -48 -155 -65 -4 -11 10 -13 72 -9 42 3 73 2 69 -2
-4 -4 -48 -33 -98 -65 -89 -59 -99 -84 -19 -50 20 8 39 14 40 12 11 -11 -143
-117 -169 -117 -8 0 -8 -3 0 -11 7 -7 26 -6 63 5 87 26 75 6 -19 -32 -80 -33
-215 -141 -197 -159 3 -4 31 5 62 20 30 15 58 27 62 27 22 -1 -102 -94 -181
-135 -162 -85 -197 -112 -158 -122 31 -8 18 -19 -65 -59 -88 -42 -95 -61 -24
-70 28 -4 49 -11 48 -16 -2 -5 -30 -24 -63 -42 -71 -40 -85 -62 -26 -41 22 7
50 19 63 26 40 21 3 -16 -48 -48 -39 -25 -63 -57 -52 -68 2 -3 23 -6 46 -8 49
-4 62 -13 33 -22 -35 -11 -23 -25 21 -25 l42 0 -32 -33 c-18 -18 -30 -36 -26
-39 9 -10 86 20 110 43 12 12 35 41 50 65 21 34 31 41 41 32 9 -8 17 -7 28 2
29 24 25 3 -10 -45 -36 -51 -37 -66 -5 -58 27 7 25 -9 -7 -47 -20 -24 -23 -34
-13 -40 9 -5 -3 -28 -45 -84 -34 -45 -55 -82 -52 -91 4 -9 -6 -24 -28 -41 -33
-25 -39 -51 -9 -40 29 11 11 -12 -81 -103 -90 -90 -145 -170 -145 -212 0 -36
19 -27 54 27 20 30 40 52 45 50 7 -4 83 44 101 64 3 3 37 30 75 59 39 30 76
59 84 65 10 8 10 2 -3 -21 -29 -57 4 -39 86 45 70 71 148 178 148 201 0 5 4
12 10 16 5 3 3 -15 -4 -40 -12 -37 -12 -45 -1 -45 23 0 139 201 150 260 26
139 44 161 188 235 86 44 74 54 -40 31 -13 -3 -23 -2 -23 2 0 3 28 35 62 69
34 34 59 65 55 69 -3 3 -20 1 -38 -5 -18 -6 -33 -10 -35 -9 -1 2 17 26 42 53
24 28 48 62 53 76 10 29 -1 55 -18 45 -7 -5 -9 3 -5 24 8 39 -5 39 -68 0 -26
-16 -51 -30 -54 -30 -11 0 9 66 32 105 13 22 44 63 69 90 l45 50 -19 -52 c-11
-29 -15 -55 -11 -58 17 -10 135 195 142 244 4 33 -15 37 -32 6 -21 -40 -31
-29 -14 18 14 38 87 127 106 127 4 0 8 -9 8 -19 0 -38 19 -31 30 11 10 37 49
158 67 208 3 10 12 0 24 -27 10 -24 21 -43 25 -43 13 0 -7 154 -21 171 -12 12
-13 26 -7 60 13 67 3 212 -16 231 -6 6 -12 -2 -16 -24z"/>
<path d="M2830 3316 c0 -2 8 -10 18 -17 15 -13 16 -12 3 4 -13 16 -21 21 -21
13z"/>
<path d="M3160 3296 c0 -2 8 -10 18 -17 15 -13 16 -12 3 4 -13 16 -21 21 -21
13z"/>
<path d="M2860 3276 c0 -2 8 -10 18 -17 15 -13 16 -12 3 4 -13 16 -21 21 -21
13z"/>
<path d="M2945 3260 c10 -11 20 -20 23 -20 3 0 -3 9 -13 20 -10 11 -20 20 -23
20 -3 0 3 -9 13 -20z"/>
<path d="M329 3253 c-13 -16 -12 -17 4 -4 16 13 21 21 13 21 -2 0 -10 -8 -17
-17z"/>
<path d="M3190 3256 c0 -2 8 -10 18 -17 15 -13 16 -12 3 4 -13 16 -21 21 -21
13z"/>
<path d="M2910 3206 c0 -2 8 -10 18 -17 15 -13 16 -12 3 4 -13 16 -21 21 -21
13z"/>
<path d="M3030 3185 c13 -14 26 -25 28 -25 3 0 -5 11 -18 25 -13 14 -26 25
-28 25 -3 0 5 -11 18 -25z"/>
<path d="M2720 3165 c19 -19 36 -35 39 -35 3 0 -10 16 -29 35 -19 19 -36 35
-39 35 -3 0 10 -16 29 -35z"/>
<path d="M2960 3136 c0 -2 8 -10 18 -17 15 -13 16 -12 3 4 -13 16 -21 21 -21
13z"/>
<path d="M3300 3081 c0 -6 4 -13 10 -16 6 -3 7 1 4 9 -7 18 -14 21 -14 7z"/>
<path d="M3032 3036 c13 -20 27 -36 31 -36 9 0 -28 56 -44 66 -6 3 0 -10 13
-30z"/>
<path d="M2201 2804 c0 -11 3 -14 6 -6 3 7 2 16 -1 19 -3 4 -6 -2 -5 -13z"/>
<path d="M2203 2725 c0 -27 2 -38 4 -22 2 15 2 37 0 50 -2 12 -4 0 -4 -28z"/>
<path d="M2461 2544 c0 -11 3 -14 6 -6 3 7 2 16 -1 19 -3 4 -6 -2 -5 -13z"/>
<path d="M2213 2485 c0 -38 2 -53 4 -32 2 20 2 52 0 70 -2 17 -4 1 -4 -38z"/>
<path d="M1160 1982 c0 -4 16 -23 35 -42 34 -33 50 -67 75 -160 12 -42 13 -43
23 -22 5 12 13 22 16 22 7 -1 57 -78 66 -103 5 -12 2 -14 -14 -10 -32 8 -25
-4 19 -33 39 -26 55 -49 26 -38 -8 3 -17 1 -20 -4 -3 -5 29 -22 72 -37 111
-39 122 -48 122 -96 0 -42 2 -44 61 -53 31 -6 39 -13 62 -59 30 -58 73 -92
150 -118 28 -10 53 -23 55 -29 13 -39 155 -150 193 -150 29 0 23 13 -21 46
-50 37 -51 49 -2 29 61 -26 212 -130 212 -147 0 -5 -22 3 -49 17 -29 14 -52
21 -56 15 -3 -5 31 -48 76 -95 45 -47 79 -85 76 -85 -3 0 -36 23 -72 50 -60
45 -85 59 -85 45 0 -11 100 -128 174 -202 44 -45 96 -99 113 -121 35 -41 117
-92 130 -79 4 4 1 22 -6 40 -7 18 -15 43 -18 57 l-6 25 30 -27 c25 -24 53 -37
53 -24 0 2 -9 25 -20 51 -11 26 -20 50 -20 53 0 4 34 -27 75 -68 41 -41 75
-78 75 -82 0 -4 -20 -5 -45 -1 -66 9 -57 -11 24 -51 80 -39 152 -86 132 -86
-9 0 -11 -8 -7 -25 7 -28 -5 -33 -24 -10 -7 8 -16 12 -21 9 -7 -4 16 -59 93
-219 14 -29 18 -56 16 -100 l-3 -60 69 -3 c48 -2 72 1 78 10 8 10 11 10 15 1
2 -7 11 -13 19 -13 12 0 13 8 8 35 -6 32 -2 39 53 97 32 35 65 72 73 82 14 18
13 19 -13 12 l-27 -6 45 90 c65 129 62 136 -30 61 -33 -27 -61 -48 -63 -46 -3
2 147 234 164 254 13 14 11 -12 -4 -51 -19 -55 -13 -67 23 -44 32 21 32 8 0
-54 -14 -27 -25 -56 -25 -65 0 -17 16 -20 25 -5 12 20 25 9 19 -15 -9 -36 10
-31 44 12 45 58 55 83 57 143 1 31 10 70 19 88 19 36 5 44 -26 15 -10 -9 -20
-14 -23 -11 -11 10 18 67 41 83 24 16 24 15 18 -10 -7 -27 12 -35 34 -13 9 9
12 9 12 0 0 -20 25 -13 50 13 26 28 26 29 -14 42 -49 15 -54 35 -21 85 l29 43
6 -30 c7 -35 18 -36 104 -6 33 12 61 19 63 17 3 -2 -7 -23 -22 -46 -40 -63
-21 -61 40 5 61 65 68 85 29 85 -19 0 -25 4 -20 15 3 8 9 22 12 30 7 17 -4 19
-40 5 -43 -16 -29 -3 30 29 l56 30 -6 -24 c-7 -27 3 -31 35 -14 17 9 21 7 26
-10 9 -34 29 -25 85 39 50 57 53 59 62 38 8 -22 9 -21 18 12 17 60 27 80 42
80 7 0 17 -12 20 -26 10 -37 26 -25 48 35 20 53 21 54 109 95 93 43 113 63 54
53 -19 -3 -35 -2 -35 2 0 17 54 31 115 31 54 0 68 4 92 25 l28 24 -28 1 c-16
0 -26 4 -23 9 3 5 85 68 181 140 96 73 175 136 175 142 0 5 -16 3 -35 -5 -39
-16 -44 -12 -18 16 35 39 4 25 -58 -25 -171 -140 -230 -187 -239 -187 -4 0
-10 7 -12 16 -2 13 -15 7 -58 -28 -94 -77 -121 -83 -210 -48 -66 26 -76 25
-56 -5 9 -13 16 -26 16 -28 0 -2 -24 0 -52 4 -90 13 -103 10 -168 -32 -54 -34
-62 -37 -57 -20 8 30 -4 33 -75 16 -89 -21 -101 -20 -88 6 22 41 -1 31 -60
-26 -59 -55 -63 -57 -103 -52 -35 5 -44 2 -64 -19 -20 -22 -53 -33 -53 -18 0
4 17 22 38 39 20 18 33 37 29 42 -5 4 -62 -11 -127 -33 -114 -40 -118 -41
-134 -23 -9 11 -27 19 -41 19 -14 0 -42 7 -62 15 -52 22 -68 19 -103 -21 -32
-37 -88 -59 -123 -48 -14 5 -16 9 -6 20 6 8 9 17 7 20 -3 3 -64 -6 -134 -20
-126 -24 -160 -25 -216 -1 -22 9 -23 19 -3 35 27 23 0 31 -51 15 -27 -8 -86
-15 -131 -15 -69 0 -83 3 -83 16 0 13 -8 15 -46 9 -43 -5 -48 -4 -78 30 -22
23 -41 35 -59 35 -17 0 -27 5 -27 15 0 11 -13 15 -54 15 -45 0 -54 3 -59 20
-4 15 -14 20 -36 20 -26 0 -31 4 -31 24 0 28 -15 36 -50 26 -36 -10 -50 -2
-50 27 0 24 -3 25 -36 20 -34 -6 -36 -4 -55 39 -16 38 -22 44 -39 39 -15 -5
-20 -2 -20 12 0 11 -6 28 -14 38 -11 16 -17 17 -28 7 -15 -12 -36 8 -158 151
-30 34 -48 34 -52 0 -3 -27 -4 -26 -45 26 -24 30 -43 63 -43 75 0 16 -19 35
-71 69 -70 46 -89 55 -89 39z"/>
</g>
</svg>
